<svg width="414" height="180" viewBox="0 0 414 180" fill="none" xmlns="http://www.w3.org/2000/svg">
<path opacity="0.951181" d="M0 1.19849C0 1.19849 71.7171 -0.870109 117.26 9.27057C162.803 19.4112 180.059 31.5642 233.777 41.7049C294.563 50.7188 365.204 73.6702 414 73.6702" stroke="white" stroke-width="3" stroke-linecap="round" stroke-linejoin="round"/>
<path d="M0 2.21848C0 2.21848 106.214 1.09983 136.53 16.7609C166.845 32.4219 168.316 51.9795 210.694 66.7926C253.071 81.6058 269.006 122.778 307.983 144.033C333.397 157.891 340.742 151.814 367.013 164.414C381.033 171.139 397.526 176.727 419 176.727" stroke="white" stroke-width="3" stroke-linecap="round" stroke-linejoin="round"/>
    <g >
    <rect x="368" y="161" width="14" height="14" rx="7" fill="#04CD00"/>
    <rect x="369.5" y="162.5" width="11" height="11" rx="5.5" stroke="white" stroke-width="3"/>
    </g>
    <g >
    <rect x="368" y="62" width="14" height="14" rx="7" fill="#EE304E"/>
    <rect x="369.5" y="63.5" width="11" height="11" rx="5.5" stroke="white" stroke-width="3"/>
    </g>
    <g >
    <g >
    <path fill-rule="evenodd" clip-rule="evenodd" d="M350 139C350 133.477 354.477 129 360 129H391C396.523 129 401 133.477 401 139V143C401 148.523 396.523 153 391 153H380L375 156L370 153H360C354.477 153 350 148.523 350 143V139Z" fill="white"/>
    </g>
    <path d="M360.633 137.545V146H362.402V143.334H363.984C365.766 143.334 367.002 142.174 367.002 140.439C367.002 138.699 365.807 137.545 364.072 137.545H360.633ZM362.402 138.945H363.604C364.617 138.945 365.203 139.484 365.203 140.445C365.203 141.412 364.611 141.951 363.598 141.951H362.402V138.945ZM369.82 138.928H371.326C372.205 138.928 372.756 139.455 372.756 140.275C372.756 141.113 372.234 141.623 371.344 141.623H369.82V138.928ZM369.82 142.906H371.238L372.814 146H374.818L373.037 142.643C374.01 142.262 374.572 141.324 374.572 140.24C374.572 138.57 373.459 137.545 371.514 137.545H368.051V146H369.82V142.906ZM379.553 137.398C377.045 137.398 375.475 139.08 375.475 141.775C375.475 144.465 377.045 146.146 379.553 146.146C382.055 146.146 383.631 144.465 383.631 141.775C383.631 139.08 382.055 137.398 379.553 137.398ZM379.553 138.875C380.936 138.875 381.82 140 381.82 141.775C381.82 143.545 380.936 144.664 379.553 144.664C378.164 144.664 377.279 143.545 377.279 141.775C377.279 140 378.17 138.875 379.553 138.875Z" fill="black"/>
    <path fill-rule="evenodd" clip-rule="evenodd" d="M390.883 147.47C390.493 147.86 389.859 147.86 389.469 147.47L386.293 144.294C385.669 143.67 386.099 142.604 386.981 142.587L388.198 142.563V137C388.198 136.448 388.645 136 389.198 136H391.315C391.868 136 392.315 136.448 392.315 137V142.484L393.457 142.462C394.357 142.445 394.82 143.533 394.184 144.169L390.883 147.47Z" fill="#04CD00"/>
    </g>
    <g >
    <g>
    <path fill-rule="evenodd" clip-rule="evenodd" d="M350 40C350 34.4772 354.477 30 360 30H391C396.523 30 401 34.4772 401 40V44C401 49.5228 396.523 54 391 54H380L375 57L370 54H360C354.477 54 350 49.5228 350 44V40Z" fill="white"/>
    </g>
    <path d="M362.432 47V43.6719H365.871V42.2715H362.432V40.0039H366.199V38.5449H360.662V47H362.432ZM367.102 47H368.812V43.4902C368.812 42.6055 369.305 42.0898 370.148 42.0898C370.395 42.0898 370.629 42.1309 370.77 42.1895V40.6836C370.652 40.6484 370.482 40.6191 370.283 40.6191C369.545 40.6191 369.012 41.0527 368.789 41.8496H368.754V40.7188H367.102V47ZM374.08 41.8496C374.842 41.8496 375.363 42.4004 375.398 43.2031H372.732C372.791 42.418 373.33 41.8496 374.08 41.8496ZM375.422 45.0781C375.264 45.5586 374.783 45.8691 374.156 45.8691C373.283 45.8691 372.715 45.2539 372.715 44.3574V44.252H377.045V43.7305C377.045 41.8203 375.891 40.584 374.062 40.584C372.205 40.584 371.033 41.8848 371.033 43.8887C371.033 45.8984 372.193 47.1348 374.127 47.1348C375.68 47.1348 376.805 46.3086 376.992 45.0781H375.422ZM380.748 41.8496C381.51 41.8496 382.031 42.4004 382.066 43.2031H379.4C379.459 42.418 379.998 41.8496 380.748 41.8496ZM382.09 45.0781C381.932 45.5586 381.451 45.8691 380.824 45.8691C379.951 45.8691 379.383 45.2539 379.383 44.3574V44.252H383.713V43.7305C383.713 41.8203 382.559 40.584 380.73 40.584C378.873 40.584 377.701 41.8848 377.701 43.8887C377.701 45.8984 378.861 47.1348 380.795 47.1348C382.348 47.1348 383.473 46.3086 383.66 45.0781H382.09Z" fill="black"/>
    <path fill-rule="evenodd" clip-rule="evenodd" d="M390.883 48.4697C390.493 48.8602 389.859 48.8602 389.469 48.4697L386.293 45.2937C385.669 44.6703 386.099 43.6037 386.981 43.5868L388.198 43.5634V38C388.198 37.4477 388.645 37 389.198 37H391.315C391.868 37 392.315 37.4477 392.315 38V43.4842L393.457 43.4623C394.357 43.445 394.82 44.5327 394.184 45.1692L390.883 48.4697Z" fill="#EE304E"/>
    </g>
</svg>
